HIERARCHY
ROOT Hips
{
    OFFSET 0.000000 0.000000 0.000000
    CHANNELS 6 Xposition Yposition Zposition Zrotation Xrotation Yrotation
    JOINT Spine
    {
        OFFSET -0.000000 7.750029 0.000000
        CHANNELS 3 Zrotation Xrotation Yrotation
        JOINT Spine1
        {
            OFFSET -0.000000 19.767460 0.000000
            CHANNELS 3 Zrotation Xrotation Yrotation
            JOINT Neck
            {
                OFFSET -0.000000 19.686279 1.789662
                CHANNELS 3 Zrotation Xrotation Yrotation
                JOINT Head
                {
                    OFFSET -0.000000 13.231757 -1.890251
                    CHANNELS 3 Zrotation Xrotation Yrotation
                    End Site
                    {
                        OFFSET -0.000000 23.628138 0.000000
                    }
                }
            }
            JOINT LeftShoulder
            {
                OFFSET 3.736819 16.910755 -0.280982
                CHANNELS 3 Zrotation Xrotation Yrotation
                JOINT LeftArm
                {
                    OFFSET 13.626117 0.000000 0.000000
                    CHANNELS 3 Zrotation Xrotation Yrotation
                    JOINT LeftForeArm
                    {
                        OFFSET 31.364786 0.000000 0.000000
                        CHANNELS 3 Zrotation Xrotation Yrotation
                        JOINT LeftHand
                        {
                            OFFSET 23.389509 0.000000 0.000000
                            CHANNELS 3 Zrotation Xrotation Yrotation
                            End Site
                            {
                                OFFSET 14.176883 0.000000 0.000000
                            }
                        }
                    }
                }
            }
            JOINT RightShoulder
            {
                OFFSET -3.821718 16.910755 -0.280982
                CHANNELS 3 Zrotation Xrotation Yrotation
                JOINT RightArm
                {
                    OFFSET -13.626117 0.000000 0.000000
                    CHANNELS 3 Zrotation Xrotation Yrotation
                    JOINT RightForeArm
                    {
                        OFFSET -31.364786 0.000000 0.000000
                        CHANNELS 3 Zrotation Xrotation Yrotation
                        JOINT RightHand
                        {
                            OFFSET -23.389509 0.000000 0.000000
                            CHANNELS 3 Zrotation Xrotation Yrotation
                            End Site
                            {
                                OFFSET -14.176883 0.000000 0.000000
                            }
                        }
                    }
                }
            }
        }
    }
    JOINT LeftUpLeg
    {
        OFFSET 9.451255 0.000000 0.000000
        CHANNELS 3 Zrotation Xrotation Yrotation
        JOINT LeftLeg
        {
            OFFSET -0.000000 -41.898624 0.000000
            CHANNELS 3 Zrotation Xrotation Yrotation
            JOINT LeftFoot
            {
                OFFSET -0.000000 -38.481331 0.000000
                CHANNELS 3 Zrotation Xrotation Yrotation
                JOINT LeftToeBase
                {
                    OFFSET -0.000000 -6.143315 14.176883
                    CHANNELS 3 Zrotation Xrotation Yrotation
                    End Site
                    {
                        OFFSET -0.000000 0.000000 3.780502
                    }
                }
            }
        }
    }
    JOINT RightUpLeg
    {
        OFFSET -9.451255 0.000000 0.000000
        CHANNELS 3 Zrotation Xrotation Yrotation
        JOINT RightLeg
        {
            OFFSET -0.000000 -41.898624 0.000000
            CHANNELS 3 Zrotation Xrotation Yrotation
            JOINT RightFoot
            {
                OFFSET -0.000000 -38.481331 0.000000
                CHANNELS 3 Zrotation Xrotation Yrotation
                JOINT RightToeBase
                {
                    OFFSET -0.000000 -6.143315 14.176883
                    CHANNELS 3 Zrotation Xrotation Yrotation
                    End Site
                    {
                        OFFSET -0.000000 0.000000 3.780502
                    }
                }
            }
        }
    }
}
MOTION
Frames:    10
Frame Time:    0.010000
-4.299971    85.139343    -57.374298    -0.613619    0.569903    -176.213638    1.837792    3.743235    -5.955703    -10.457722    12.560810    -4.741550    -4.993595    37.056713    3.109803    12.709030    -42.298237    8.579960    10.141213    -2.606050    -12.395490    -47.641010    40.300652    -12.698491    14.045853    -21.932413    -27.358395    -13.072480    -17.435213    -11.668427    -9.118211    9.469132    1.721981    63.089230    51.517906    20.809374    -3.842068    -8.031845    21.536438    17.507135    -6.866040    2.886686    7.859652    2.712478    4.111125    -6.054707    35.696289    -8.128505    2.712933    -25.234692    9.769731    0.000000    0.000000    0.000000    -4.721805    -24.346767    1.510217    10.022089    47.354931    14.761276    -9.875702    -18.459627    -31.127695    0.000000    0.000000    0.000000    
-4.123100    85.120865    -58.091534    -0.572092    0.539618    -176.201538    2.043233    3.704742    -5.792261    -10.683169    12.702500    -4.533643    -4.631174    37.149483    3.052394    11.332169    -42.326454    7.897842    9.993284    -2.561603    -12.622463    -47.681641    39.897423    -13.230121    13.316941    -21.609322    -26.746248    -12.036602    -17.467831    -11.487928    -9.121376    9.404519    1.545010    63.499340    51.356503    20.322260    -3.786491    -8.246058    21.513275    17.398804    -7.126380    2.679492    8.181454    2.836510    4.085817    -6.194247    36.142170    -7.760299    2.584868    -24.720411    9.194460    0.000000    0.000000    0.000000    -4.639539    -23.656450    1.294380    10.532917    47.358746    13.848412    -10.396501    -19.567585    -30.756693    0.000000    0.000000    0.000000    
-3.947979    85.153152    -58.784367    -0.540484    0.378078    -176.240311    2.149112    3.591752    -5.643252    -10.777449    12.755150    -4.367703    -4.700224    37.186890    3.014897    10.773026    -42.202854    7.547972    9.859697    -2.460032    -12.652295    -48.073532    39.706654    -13.523344    13.132818    -21.218025    -26.167036    -11.201118    -17.265217    -11.404298    -9.101379    9.256101    1.641997    64.051674    51.108807    19.586372    -3.879090    -8.553757    21.437923    17.524448    -7.436917    2.549836    8.551532    2.791166    4.338213    -6.259514    36.589752    -7.269057    0.241135    -23.766258    7.883841    0.000000    0.000000    0.000000    -4.373069    -23.009119    0.903739    10.011684    46.947441    13.045936    -10.409624    -20.497433    -29.441061    0.000000    0.000000    0.000000    
-3.815062    85.264313    -59.412170    -0.580115    0.012203    -176.301575    2.145847    3.466312    -5.483565    -10.748012    12.553493    -4.232995    -5.213152    37.032089    3.039688    10.913014    -41.683723    7.494754    9.766786    -2.198701    -12.704716    -48.699684    39.416115    -13.803484    12.900976    -21.250990    -25.521387    -10.720747    -17.460169    -11.520683    -9.134717    9.203876    1.516077    63.897076    51.680912    19.486267    -4.094478    -9.262300    21.354397    17.630789    -8.116297    2.493993    8.809510    2.363319    4.737507    -6.215204    37.289787    -7.488837    -0.602457    -22.432301    7.669435    0.000000    0.000000    0.000000    -4.217269    -22.537767    0.892412    9.345798    46.074745    11.934246    -9.688899    -21.139166    -27.180441    0.000000    0.000000    0.000000    
-3.644463    85.427330    -60.076733    -0.552153    -0.277227    -176.396225    1.885877    3.244889    -5.336675    -10.384959    12.584876    -4.135013    -4.807369    37.370842    3.235067    9.243720    -41.988251    6.956087    9.650406    -2.081884    -12.638149    -49.764347    38.745796    -13.638651    12.537619    -20.640005    -25.429916    -9.987725    -17.084478    -10.473893    -9.001729    8.952340    1.696262    63.957420    51.914425    19.026949    -4.511729    -9.940401    21.071178    17.839273    -8.739856    2.401541    9.167521    2.001698    5.426481    -5.902287    38.046406    -7.915090    -2.604645    -21.020073    6.650039    0.000000    0.000000    0.000000    -3.907532    -21.922041    1.083048    8.927590    44.833069    10.945223    -9.558327    -21.086876    -26.174862    0.000000    0.000000    0.000000    
-3.482892    85.587402    -60.740494    -0.528718    -0.519882    -176.475784    1.799232    3.340336    -5.175251    -10.171745    12.239904    -4.029292    -4.700352    36.956322    3.236696    8.467369    -41.122665    6.548175    9.704434    -2.045620    -12.364241    -50.751896    39.138599    -13.632182    12.460073    -20.935122    -25.164711    -9.888065    -17.466639    -10.161982    -8.895082    8.594432    1.345151    63.823433    52.280411    18.848639    -4.489531    -10.199876    20.841360    17.951286    -9.017495    2.361007    9.553832    1.676298    5.624895    -5.881681    38.700600    -8.118502    -4.608352    -19.726831    6.186582    0.000000    0.000000    0.000000    -3.713080    -21.407509    1.254540    8.910517    44.259769    11.332552    -9.748405    -21.197792    -27.037365    0.000000    0.000000    0.000000    
-3.352996    85.813011    -61.390842    -0.618994    -0.872869    -176.540482    1.575569    3.178421    -5.161849    -10.240946    11.965693    -4.042021    -4.892791    36.970924    3.376038    8.860974    -40.705364    6.813701    10.150797    -1.889979    -11.944513    -51.955326    39.267227    -13.683092    12.282846    -20.170115    -24.372759    -9.627481    -16.866127    -9.740404    -8.374556    8.549414    1.525134    62.887718    52.293007    19.304888    -4.335911    -10.414392    20.494314    18.133636    -9.283179    2.279193    9.819740    1.100472    6.290565    -5.480794    39.740662    -10.234809    -5.066834    -18.183638    7.011570    0.000000    0.000000    0.000000    -3.757545    -21.181505    1.193745    8.862967    44.171959    13.523688    -10.021243    -21.198208    -28.983419    0.000000    0.000000    0.000000    
-3.233137    86.021942    -62.021149    -0.661795    -1.183194    -176.497421    1.359090    3.035236    -5.102272    -9.964135    11.654237    -4.046821    -4.592527    37.385265    3.632364    7.647955    -40.879284    6.539305    10.156468    -1.745566    -11.850858    -53.292473    39.622368    -12.981126    12.142630    -20.600159    -24.479918    -9.929660    -17.347916    -9.140149    -8.249954    8.492426    1.550238    62.308079    52.320999    19.756971    -4.406169    -10.511873    19.798689    18.215307    -9.351088    2.550619    10.051290    0.541330    6.659296    -5.004178    40.827766    -12.992065    -7.803947    -18.244345    8.929367    0.000000    0.000000    0.000000    -3.828725    -20.941973    1.436872    9.274467    44.236473    15.341863    -10.764785    -20.935965    -30.755854    0.000000    0.000000    0.000000    
-3.137321    86.263809    -62.641567    -0.760751    -1.555813    -176.502060    1.158208    2.847019    -5.037306    -9.679832    11.346597    -4.044625    -5.488406    37.078976    3.858946    8.555840    -40.115269    6.990216    10.052005    -1.602739    -11.461490    -54.158085    40.337597    -12.684172    12.072539    -19.987164    -24.242079    -10.245219    -16.752247    -8.982420    -8.419300    8.452978    1.493812    62.170986    51.763382    20.239664    -4.418427    -10.091135    19.076813    18.301117    -8.936977    2.652256    10.106041    -0.056163    6.773795    -4.627581    41.638649    -13.476770    -9.322288    -17.529940    8.946544    0.000000    0.000000    0.000000    -3.937742    -20.777546    1.514705    9.422320    44.040413    16.296968    -10.945701    -20.457268    -31.603588    0.000000    0.000000    0.000000    
-3.100576    86.458000    -63.126839    -1.055318    -2.228946    -176.847549    0.758066    2.563962    -4.824067    -9.535829    10.812871    -3.902548    -5.088661    37.110096    4.055041    7.365666    -39.874203    6.684021    10.320868    -1.544553    -11.203484    -55.375053    41.430267    -12.308124    12.056316    -20.294544    -23.595644    -11.202012    -17.036469    -9.280462    -8.303467    8.277011    1.472953    61.632786    51.540691    20.743193    -4.427145    -9.824363    18.352140    18.511847    -8.651707    2.898351    9.895475    -0.921125    6.953394    -4.545650    42.389893    -13.431800    -10.564959    -17.094625    8.919073    0.000000    0.000000    0.000000    -4.230151    -21.090071    2.137353    10.041868    43.613560    13.461374    -10.160425    -20.355217    -29.425810    0.000000    0.000000    0.000000    
